<svg id="Capa_1" enable-background="new 0 0 512 512" height="512" viewBox="0 0 512 512" width="512" xmlns="http://www.w3.org/2000/svg"><g><path d="m130.039 363.732c-87.358-101.962-23.059-261.334 111.172-273.415v-90.317c-134.126 7.699-241.211 118.74-241.211 255.776 0 64.126 23.399 124.654 66.156 171.838z" fill="#00ddc0"/><path d="m271.237 90.317c79.656 7.169 143.277 70.79 150.446 150.446h90.317c-7.437-129.567-111.086-233.319-240.763-240.763z" fill="#00959b"/><path d="m421.683 270.789c-7.614 84.603-78.908 151.132-165.459 151.132-39.647 0-76.089-13.967-104.682-37.229l-63.971 63.971c46.709 40.957 105.957 63.337 168.653 63.337 137.041 0 248.077-107.091 255.776-241.211z" fill="#ffd17e"/><path d="m511.997 270.789c-7.697 134.118-118.734 241.211-255.773 241.211v-90.079c86.556 0 157.848-66.528 165.455-151.132z" fill="#ffb739"/><path d="m338.656 242.974-119.417-71.48c-9.994-5.98-22.724 1.234-22.724 12.882v142.801c0 11.703 12.771 18.827 22.711 12.889l119.417-71.321c9.71-5.8 9.773-19.928.013-25.771z" fill="#ff7149"/><path d="m338.646 268.748-82.422 49.223v-124.339l82.432 49.343c9.758 5.845 9.698 19.968-.01 25.773z" fill="#ff4e51"/></g></svg>